# xmcd
# Copyright (C) 1995-1998 Ti Kan
#
# Track frame offsets:
#       150
#       12217
#       28845
#       46127
#       64085
#       81500
#       108710
#       124905
#       143165
#       147847
#       173847
#       189515
#       202845
#
# Disc length: 2979 seconds
#
# Revision: 0
# Processed by: cddbd v1.5.2PL0 Copyright (c) Steve Scherf et al.
# Submitted via: CD-Import v1.0
#
DISCID=b70ba10d
DTITLE=Pearl Jam - No Code
DYEAR=1996
DGENRE=
TTITLE0=Sometimes
TTITLE1=Hail,Hail
TTITLE2=Who You Are
TTITLE3=In My Tree
TTITLE4=Smile
TTITLE5=Off He Goes
TTITLE6=Habit
TTITLE7=Red Mosquito
TTITLE8=Lunik
TTITLE9=Present Tense
TTITLE10=Mankind
TTITLE11=I'm Open
TTITLE12=Around The Bend
EXTD=
EXTT0=
EXTT1=
EXTT2=
EXTT3=
EXTT4=
EXTT5=
EXTT6=
EXTT7=
EXTT8=
EXTT9=
EXTT10=
EXTT11=
EXTT12=
PLAYORDER=
